<?xml version="1.0" encoding="utf-8"?>
<!-- Svg Vector Icons : http://www.onlinewebfonts.com/icon -->
<!DOCTYPE svg PUBLIC "-//W3C//DTD SVG 1.1//EN" "http://www.w3.org/Graphics/SVG/1.1/DTD/svg11.dtd">
<svg version="1.1" xmlns="http://www.w3.org/2000/svg" xmlns:xlink="http://www.w3.org/1999/xlink" x="0px" y="0px" viewBox="0 0 1000 1000" enable-background="new 0 0 1000 1000" xml:space="preserve">
<metadata> Svg Vector Icons : http://www.onlinewebfonts.com/icon </metadata>
<g><g><path d="M386.9,500c0-30.2,11.2-56.6,33.9-79.2s49.1-33.9,79.2-33.9L386.9,500z M353,533.9c-3.7-11.2-3.7-22.7-3.7-33.9c0-83,67.8-150.8,150.8-150.8c11.2,0,22.7,0,33.9,3.7l101.7-101.7c-41.4-11.2-86.7-15.2-135.8-15.2C160.8,236.1,10,500,10,500s60.3,105.5,192.2,184.7L353,533.9z M613.1,500L500,613.1c30.2,0,56.6-11.2,79.2-33.9C601.7,556.6,613.1,530.2,613.1,500z M797.8,315.3L647,466.1c3.7,11.2,3.7,22.7,3.7,33.9c0,83-67.8,150.8-150.8,150.8c-11.2,0-22.7,0-33.9-3.7L364.4,748.7c41.4,11.2,86.7,15,135.6,15c339.2,0,490-263.9,490-263.9S929.7,394.6,797.8,315.3z M801.2,161.6L161.6,801.2l37.3,37.3l639.8-639.8L801.2,161.6z"/></g><g></g><g></g><g></g><g></g><g></g><g></g><g></g><g></g><g></g><g></g><g></g><g></g><g></g><g></g><g></g></g>
</svg>